<?xml version="1.0" standalone="no"?>
<!DOCTYPE svg PUBLIC "-//W3C//DTD SVG 20010904//EN"
 "http://www.w3.org/TR/2001/REC-SVG-20010904/DTD/svg10.dtd">
<svg version="1.0" xmlns="http://www.w3.org/2000/svg"
 width="225.000000pt" height="225.000000pt" viewBox="0 0 225.000000 225.000000"
 preserveAspectRatio="xMidYMid meet">
<metadata>
Created by potrace 1.15, written by Peter Selinger 2001-2017
</metadata>
<g transform="translate(0.000000,225.000000) scale(0.100000,-0.100000)"
fill="#000000" stroke="none">
<path d="M693 1736 c-174 -44 -281 -150 -343 -342 l-27 -86 -54 -18 c-34 -12
-64 -30 -81 -51 -41 -48 -105 -177 -123 -245 -19 -73 -19 -176 -1 -213 19 -35
99 -109 137 -125 18 -8 42 -33 62 -66 63 -106 171 -156 286 -132 72 15 127 54
171 120 l34 52 397 0 398 0 6 -21 c11 -33 84 -108 130 -132 56 -30 174 -30
230 0 59 31 113 91 133 145 15 43 23 52 69 73 77 35 83 53 83 238 0 153 0 154
-28 193 -85 116 -252 195 -445 211 l-79 6 -108 161 c-169 253 -141 240 -515
243 -202 1 -294 -1 -332 -11z m77 -347 l0 -129 -115 0 c-131 0 -127 -3 -100
86 17 57 72 127 118 151 39 20 79 32 90 26 4 -2 7 -62 7 -134z m517 119 c11
-13 44 -63 73 -113 30 -49 60 -100 68 -112 l14 -23 -296 0 -296 0 0 135 0 135
208 0 c204 0 209 -1 229 -22z m-177 -398 c11 -11 20 -24 20 -30 0 -5 -9 -19
-20 -30 -16 -16 -33 -20 -93 -20 -79 0 -117 16 -117 50 0 34 38 50 117 50 60
0 77 -4 93 -20z m-533 -231 c57 -27 97 -93 97 -159 0 -180 -241 -247 -331 -92
-92 156 70 330 234 251z m1296 5 c45 -23 66 -44 88 -86 59 -115 -30 -258 -161
-258 -131 0 -220 143 -161 258 45 89 151 128 234 86z"/>
</g>
</svg>
